<?xml version="1.0" standalone="no"?>
<!DOCTYPE svg PUBLIC "-//W3C//DTD SVG 20010904//EN"
 "http://www.w3.org/TR/2001/REC-SVG-20010904/DTD/svg10.dtd">
<svg version="1.0" xmlns="http://www.w3.org/2000/svg"
 width="1500.000000pt" height="1500.000000pt" viewBox="0 0 1500.000000 1500.000000"
 preserveAspectRatio="xMidYMid meet">
<metadata>
Created by potrace 1.14, written by Peter Selinger 2001-2017
</metadata>
<g transform="translate(0.000000,1500.000000) scale(0.100000,-0.100000)"
fill="#000000" stroke="none">
<path d="M7138 12385 c-2 -2 -43 -6 -92 -10 -49 -4 -97 -8 -107 -10 -10 -2
-44 -6 -76 -10 -217 -23 -551 -115 -803 -223 -38 -16 -193 -91 -225 -109 -301
-169 -477 -302 -720 -547 -389 -391 -705 -927 -902 -1526 -80 -245 -166 -615
-199 -860 -3 -25 -8 -53 -10 -64 -2 -10 -6 -44 -9 -75 -4 -31 -8 -63 -10 -71
-2 -8 -7 -46 -11 -85 -4 -38 -8 -83 -10 -100 -2 -16 -6 -68 -9 -115 -4 -47 -8
-96 -10 -109 -25 -150 -24 -1091 0 -1361 3 -30 7 -82 10 -115 7 -95 15 -173
30 -295 12 -97 16 -126 20 -140 2 -8 7 -39 10 -69 4 -30 9 -63 11 -75 2 -12
11 -57 19 -101 8 -44 17 -91 19 -105 3 -14 8 -38 11 -55 40 -205 144 -556 232
-780 70 -180 220 -485 319 -651 68 -114 182 -286 219 -333 8 -9 49 -62 93
-117 86 -109 296 -327 402 -416 319 -270 743 -493 1110 -583 189 -46 326 -71
440 -81 41 -3 103 -9 137 -13 112 -13 511 -4 633 14 14 2 50 6 80 10 30 3 91
13 135 22 44 8 89 17 100 18 11 2 56 12 100 23 368 91 725 259 1036 487 45 33
87 65 93 70 6 6 41 35 76 65 86 72 281 266 361 360 35 41 67 77 70 80 3 3 50
64 103 135 165 219 342 521 449 765 74 169 133 324 183 480 36 116 92 311 100
350 3 14 12 54 20 90 28 123 83 429 99 550 3 25 8 61 11 80 2 19 6 57 9 84 2
27 6 74 9 105 24 242 30 407 30 761 0 184 -3 389 -7 455 -10 172 -17 264 -22
315 -3 25 -7 70 -10 100 -3 30 -8 78 -11 105 -3 28 -8 64 -10 80 -7 61 -16
131 -20 150 -2 10 -6 37 -9 60 -3 22 -13 78 -22 125 -8 47 -17 95 -19 108 -38
221 -129 554 -221 812 -24 69 -48 134 -53 145 -5 11 -30 70 -56 130 -149 355
-381 750 -593 1010 -408 499 -932 829 -1543 974 -118 28 -136 31 -298 55 -90
14 -109 16 -170 22 -69 6 -517 14 -522 9z m307 -719 c234 -13 418 -62 640
-171 275 -136 475 -327 668 -642 70 -114 237 -457 237 -486 0 -7 4 -17 8 -22
5 -6 19 -39 31 -75 13 -36 26 -72 30 -80 14 -26 114 -347 137 -435 19 -75 75
-320 80 -350 3 -22 7 -42 9 -45 2 -3 6 -26 10 -50 3 -25 10 -67 15 -95 5 -27
12 -68 15 -90 2 -22 7 -49 9 -60 2 -11 7 -49 11 -85 4 -36 8 -72 10 -80 2 -8
6 -44 10 -80 3 -36 8 -78 10 -95 2 -16 6 -70 10 -120 3 -49 8 -106 10 -125 24
-202 25 -1112 1 -1360 -3 -25 -7 -88 -11 -141 -3 -53 -7 -105 -9 -115 -2 -11
-7 -50 -10 -89 -4 -38 -9 -81 -11 -95 -3 -14 -6 -45 -9 -70 -2 -25 -12 -90
-21 -145 -9 -55 -18 -116 -21 -135 -2 -19 -9 -58 -14 -86 -6 -28 -13 -64 -16
-80 -38 -218 -178 -715 -248 -879 -7 -16 -30 -70 -51 -120 -154 -361 -368
-660 -615 -861 -540 -437 -1134 -525 -1733 -256 -152 69 -338 202 -482 348
-291 293 -473 612 -632 1109 -36 114 -130 474 -139 535 -3 19 -9 51 -14 70 -5
19 -11 51 -14 70 -3 19 -8 45 -10 56 -11 54 -40 248 -51 344 -3 25 -7 61 -10
80 -8 64 -25 232 -30 305 -27 369 -27 1072 0 1395 11 130 16 185 20 223 2 23
7 69 10 102 9 96 15 144 30 240 7 50 16 110 19 135 3 25 8 56 11 70 9 44 13
64 19 100 12 68 15 86 26 145 17 82 18 90 20 90 1 0 3 7 5 15 17 87 30 147 47
210 11 41 21 83 23 93 13 60 76 266 122 402 88 256 211 519 314 673 16 24 29
45 29 48 0 3 5 10 10 17 6 7 33 44 62 82 66 91 241 264 343 341 266 201 575
314 881 323 43 1 80 4 82 6 2 2 9 2 15 0 7 -2 57 -6 112 -9z"/>
</g>
</svg>
